<svg xmlns="http://www.w3.org/2000/svg" viewBox="0 0 32 32">
  <defs>
    <linearGradient id="grad" x1="0%" y1="0%" x2="100%" y2="100%">
      <stop offset="0%" style="stop-color:#8B5CF6;stop-opacity:1" />
      <stop offset="50%" style="stop-color:#A855F7;stop-opacity:1" />
      <stop offset="100%" style="stop-color:#EC4899;stop-opacity:1" />
    </linearGradient>
  </defs>
  <rect width="32" height="32" rx="8" fill="url(#grad)"/>
  <g fill="white" transform="translate(6, 6) scale(0.8)">
    <!-- Sparkles icon -->
    <path d="M12 3l1.5 4.5L18 9l-4.5 1.5L12 15l-1.5-4.5L6 9l4.5-1.5L12 3z"/>
    <path d="M19 12l1 3 3 1-3 1-1 3-1-3-3-1 3-1 1-3z" opacity="0.8"/>
    <path d="M5 16l0.75 2.25L8 19l-2.25 0.75L5 22l-0.75-2.25L2 19l2.25-0.75L5 16z" opacity="0.6"/>
  </g>
</svg>

